#N canvas 129 64 1625 925 12;
#X obj 23 12 tgl 19 0 empty empty empty 0 -10 0 12 #fcfcfc #000000 #000000 0 1;
#X msg 23 36 \; pd dsp \$1;
#N canvas 793 146 656 559 oscReceive 0;
#X obj 55 184 netreceive -u -b;
#X msg 78 143 listen 0;
#X text 152 143 stop listening;
#X text 64 58 packets from network;
#X text 173 177 UDP packets \, binary output, f 13;
#X obj 45 314 print;
#X obj 45 272 oscparse;
#X text 150 114 listen on port 8000;
#X obj 177 269 oscparse;
#X obj 177 293 list trim;
#X floatatom 5 430 5 0 0 0 - - - 0;
#X text 241 267 Parse the OSC message;
#X obj 177 319 route unity;
#X msg 66 115 listen 8000;
#X obj 66 84 loadbang;
#X obj 4 407 route TriangleChannel;
#X obj 5 457 s TC;
#X obj 174 407 route PulseWave1;
#X obj 303 407 route PulseWave2;
#X obj 432 407 route NoiseChannel;
#X floatatom 174 436 5 0 0 0 - - - 0;
#X floatatom 303 435 5 0 0 0 - - - 0;
#X floatatom 432 433 5 0 0 0 - - - 0;
#X obj 173 461 s PW1;
#X obj 302 460 s PW2;
#X obj 433 461 s NC;
#X connect 0 0 6 0;
#X connect 0 0 8 0;
#X connect 1 0 0 0;
#X connect 6 0 5 0;
#X connect 8 0 9 0;
#X connect 9 0 12 0;
#X connect 10 0 16 0;
#X connect 12 0 15 0;
#X connect 12 0 17 0;
#X connect 12 0 18 0;
#X connect 12 0 19 0;
#X connect 13 0 0 0;
#X connect 14 0 13 0;
#X connect 15 0 10 0;
#X connect 17 0 20 0;
#X connect 18 0 21 0;
#X connect 19 0 22 0;
#X connect 20 0 23 0;
#X connect 21 0 24 0;
#X connect 22 0 25 0;
#X restore 32 133 pd oscReceive;
#N canvas 727 97 911 657 oscSend 0;
#X msg 158 207 disconnect;
#X obj 61 253 netsend -u -b;
#X obj 59 55 list prepend send;
#X obj 59 80 list trim;
#X msg 150 175 connect 127.0.0.1 8001;
#X obj 59 29 r oscOut;
#X text 301 163 send to port 8001;
#X msg 147 148 connect localhost 8001;
#X obj 147 108 loadbang;
#X connect 0 0 1 0;
#X connect 2 0 3 0;
#X connect 3 0 1 0;
#X connect 4 0 1 0;
#X connect 5 0 2 0;
#X connect 7 0 1 0;
#X connect 8 0 7 0;
#X restore 32 109 pd oscSend;
#X floatatom 32 213 5 0 0 0 - - - 0;
#X obj 33 297 oscformat PD message;
#X msg 65 258 set PD message;
#X obj 33 332 s oscOut;
#X obj 224 332 *~;
#X obj 217 377 dac~;
#X floatatom 175 66 5 0 0 0 - - - 0;
#X floatatom 333 376 5 0 0 0 - - - 0;
#X obj 174 32 r TC;
#X obj 406 27 r PW1;
#X obj 841 29 r PW2;
#X obj 1309 24 r NC;
#X obj 336 187 vsl 19 162 0 1 0 0 empty empty empty 0 -9 0 12 #00ff04 #000000 #000000 0 1;
#X obj 255 130 phasor~;
#X obj 174 105 phasor~;
#X obj 255 104 * -1;
#X obj 174 130 *~ 2;
#X obj 174 156 -~ 1;
#X obj 173 184 clip~ 0 1;
#X obj 255 155 *~ 2;
#X obj 255 181 -~ 1;
#X obj 254 209 clip~ 0 1;
#X obj 224 245 +~;
#X obj 224 272 *~ 2;
#X obj 224 298 -~ 1;
#X obj 406 126 select 0 1 2 3 4 5 6 7 8;
#X floatatom 446 383 5 0 0 0 - - - 0;
#X obj 446 537 *~;
#X obj 446 602 dac~;
#X obj 445 352 mtof;
#X obj 443 291 + 0;
#X obj 561 443 vline~;
#X floatatom 750 227 5 0 0 0 - - - 0;
#X obj 750 174 loadbang;
#X msg 401 197 0;
#X floatatom 406 62 5 0 0 0 - - - 0;
#X msg 750 201 60;
#X obj 455 435 * 1.5;
#X obj 228 11 bng 19 250 50 0 empty empty empty 0 -10 0 12 #fcfcfc #000000 #000000;
#X msg 228 36 0;
#X obj 842 130 select 0 1 2 3 4 5 6 7 8;
#X floatatom 882 387 5 0 0 0 - - - 0;
#X obj 882 541 *~;
#X obj 877 607 dac~;
#X obj 881 356 mtof;
#X obj 879 295 + 0;
#X obj 997 447 vline~;
#X floatatom 1186 231 5 0 0 0 - - - 0;
#X obj 1186 178 loadbang;
#X msg 837 201 0;
#X floatatom 842 66 5 0 0 0 - - - 0;
#X msg 876 201 2;
#X msg 917 201 4;
#X msg 959 201 5;
#X msg 996 202 7;
#X msg 1037 202 9;
#X msg 1079 202 11;
#X msg 1113 202 12;
#X msg 1186 205 60;
#X obj 891 439 * 1.5;
#X msg 997 395 0.85 500 \, 0 100 1000;
#X floatatom 561 673 5 0 0 0 - - - 0;
#X obj 564 484 vsl 19 162 0 1 0 0 empty empty empty 0 -9 0 12 #00ff04 #000000 #000000 0 1;
#X obj 449 564 *~;
#X floatatom 978 681 5 0 0 0 - - - 0;
#X obj 978 501 vsl 19 162 0 1 0 0 empty empty empty 0 -9 0 12 #00ff04 #000000 #000000 0 1;
#X obj 882 569 *~;
#X obj 392 461 phasor~;
#X obj 453 462 phasor~;
#X msg 561 391 0.85 0 \, 0 200;
#X msg 440 197 2;
#X msg 481 197 3;
#X msg 523 197 5;
#X msg 560 198 7;
#X msg 601 198 8;
#X msg 643 198 10;
#X msg 677 198 12;
#X obj 825 466 phasor~;
#X obj 889 466 phasor~;
#X obj 801 506 expr~ $v1 > 0.5;
#X obj 1280 190 *~;
#X obj 1269 250 dac~;
#X obj 1344 158 vline~;
#X obj 1251 99 noise~;
#X obj 1343 66 bng 15 250 50 0 empty empty empty 17 7 0 10 #fcfcfc #000000 #000000;
#X msg 1344 106 1 0 \, 0 100 75;
#X floatatom 1364 380 5 0 0 0 - - - 0;
#X obj 1366 193 vsl 19 162 0 1 0 0 empty empty empty 0 -9 0 12 #00ff04 #000000 #000000 0 1;
#X obj 1278 219 *~;
#X connect 0 0 1 0;
#X connect 4 0 5 0;
#X connect 5 0 7 0;
#X connect 6 0 5 0;
#X connect 8 0 9 0;
#X connect 8 0 9 1;
#X connect 10 0 18 0;
#X connect 10 0 19 0;
#X connect 11 0 8 1;
#X connect 12 0 10 0;
#X connect 13 0 39 0;
#X connect 14 0 54 0;
#X connect 15 0 88 0;
#X connect 16 0 11 0;
#X connect 17 0 23 0;
#X connect 18 0 20 0;
#X connect 19 0 17 0;
#X connect 20 0 21 0;
#X connect 21 0 22 0;
#X connect 22 0 26 0;
#X connect 23 0 24 0;
#X connect 24 0 25 0;
#X connect 25 0 26 0;
#X connect 26 0 27 0;
#X connect 27 0 28 0;
#X connect 28 0 8 0;
#X connect 29 0 38 0;
#X connect 29 1 74 0;
#X connect 29 2 75 0;
#X connect 29 3 76 0;
#X connect 29 4 77 0;
#X connect 29 5 78 0;
#X connect 29 6 79 0;
#X connect 29 7 80 0;
#X connect 29 8 38 0;
#X connect 30 0 41 0;
#X connect 30 0 71 0;
#X connect 31 0 67 0;
#X connect 33 0 30 0;
#X connect 34 0 33 0;
#X connect 34 0 73 0;
#X connect 35 0 31 1;
#X connect 36 0 34 1;
#X connect 37 0 40 0;
#X connect 38 0 34 0;
#X connect 39 0 29 0;
#X connect 40 0 36 0;
#X connect 41 0 72 0;
#X connect 42 0 43 0;
#X connect 43 0 10 0;
#X connect 44 0 53 0;
#X connect 44 1 55 0;
#X connect 44 2 56 0;
#X connect 44 3 57 0;
#X connect 44 4 58 0;
#X connect 44 5 59 0;
#X connect 44 6 60 0;
#X connect 44 7 61 0;
#X connect 44 8 53 0;
#X connect 45 0 63 0;
#X connect 45 0 81 0;
#X connect 46 0 70 0;
#X connect 48 0 45 0;
#X connect 49 0 48 0;
#X connect 49 0 64 0;
#X connect 50 0 46 1;
#X connect 51 0 49 1;
#X connect 52 0 62 0;
#X connect 53 0 49 0;
#X connect 54 0 44 0;
#X connect 55 0 49 0;
#X connect 56 0 49 0;
#X connect 57 0 49 0;
#X connect 58 0 49 0;
#X connect 59 0 49 0;
#X connect 60 0 49 0;
#X connect 61 0 49 0;
#X connect 62 0 51 0;
#X connect 63 0 82 0;
#X connect 64 0 50 0;
#X connect 65 0 67 1;
#X connect 66 0 65 0;
#X connect 67 0 32 0;
#X connect 67 0 32 1;
#X connect 68 0 70 1;
#X connect 69 0 68 0;
#X connect 70 0 47 0;
#X connect 70 0 47 1;
#X connect 71 0 31 0;
#X connect 72 0 31 0;
#X connect 73 0 35 0;
#X connect 74 0 34 0;
#X connect 75 0 34 0;
#X connect 76 0 34 0;
#X connect 77 0 34 0;
#X connect 78 0 34 0;
#X connect 79 0 34 0;
#X connect 80 0 34 0;
#X connect 81 0 83 0;
#X connect 82 0 83 0;
#X connect 83 0 46 0;
#X connect 84 0 92 0;
#X connect 86 0 84 1;
#X connect 87 0 84 0;
#X connect 88 0 89 0;
#X connect 89 0 86 0;
#X connect 90 0 92 1;
#X connect 91 0 90 0;
#X connect 92 0 85 0;
#X connect 92 0 85 1;
