#N canvas 334 167 1625 925 12;
#X obj 23 12 tgl 19 0 empty empty empty 0 -10 0 12 #fcfcfc #000000 #000000 0 1;
#X msg 23 36 \; pd dsp \$1;
#N canvas 793 146 656 559 oscReceive 0;
#X obj 55 184 netreceive -u -b;
#X msg 78 143 listen 0;
#X text 152 143 stop listening;
#X text 64 58 packets from network;
#X text 173 177 UDP packets \, binary output, f 13;
#X obj 45 314 print;
#X obj 45 272 oscparse;
#X text 150 114 listen on port 8000;
#X obj 177 269 oscparse;
#X obj 177 293 list trim;
#X floatatom 5 430 5 0 0 0 - - - 0;
#X text 241 267 Parse the OSC message;
#X obj 177 319 route unity;
#X msg 66 115 listen 8000;
#X obj 66 84 loadbang;
#X obj 4 407 route TriangleChannel;
#X obj 5 457 s TC;
#X obj 174 407 route PulseWave1;
#X obj 303 407 route PulseWave2;
#X obj 432 407 route NoiseChannel;
#X floatatom 174 436 5 0 0 0 - - - 0;
#X floatatom 303 435 5 0 0 0 - - - 0;
#X floatatom 432 433 5 0 0 0 - - - 0;
#X obj 173 461 s PW1;
#X obj 302 460 s PW2;
#X obj 433 461 s NC;
#X connect 0 0 6 0;
#X connect 0 0 8 0;
#X connect 1 0 0 0;
#X connect 6 0 5 0;
#X connect 8 0 9 0;
#X connect 9 0 12 0;
#X connect 10 0 16 0;
#X connect 12 0 15 0;
#X connect 12 0 17 0;
#X connect 12 0 18 0;
#X connect 12 0 19 0;
#X connect 13 0 0 0;
#X connect 14 0 13 0;
#X connect 15 0 10 0;
#X connect 17 0 20 0;
#X connect 18 0 21 0;
#X connect 19 0 22 0;
#X connect 20 0 23 0;
#X connect 21 0 24 0;
#X connect 22 0 25 0;
#X restore 23 123 pd oscReceive;
#N canvas 727 97 911 657 oscSend 0;
#X msg 158 207 disconnect;
#X obj 61 253 netsend -u -b;
#X obj 59 55 list prepend send;
#X obj 59 80 list trim;
#X msg 150 175 connect 127.0.0.1 8001;
#X obj 59 29 r oscOut;
#X text 301 163 send to port 8001;
#X msg 147 148 connect localhost 8001;
#X obj 147 108 loadbang;
#X connect 0 0 1 0;
#X connect 2 0 3 0;
#X connect 3 0 1 0;
#X connect 4 0 1 0;
#X connect 5 0 2 0;
#X connect 7 0 1 0;
#X connect 8 0 7 0;
#X restore 23 99 pd oscSend;
#X floatatom 18 186 5 0 0 0 - - - 0;
#X obj 19 270 oscformat PD message;
#X msg 51 231 set PD message;
#X obj 19 305 s oscOut;
#X obj 366 406 *~;
#X obj 359 451 dac~;
#X floatatom 318 143 5 0 0 0 - - - 0;
#X floatatom 475 450 5 0 0 0 - - - 0;
#X obj 316 106 r TC;
#X obj 732 86 r PW1;
#X obj 1167 88 r PW2;
#X obj 1681 77 r NC;
#X obj 478 261 vsl 19 162 0 1 0 0 empty empty empty 0 -9 0 12 #00ff04 #000000 #000000 0 1;
#X obj 397 204 phasor~;
#X obj 316 179 phasor~;
#X obj 397 178 * -1;
#X obj 316 204 *~ 2;
#X obj 316 230 -~ 1;
#X obj 315 258 clip~ 0 1;
#X obj 397 229 *~ 2;
#X obj 397 255 -~ 1;
#X obj 396 283 clip~ 0 1;
#X obj 366 319 +~;
#X obj 366 346 *~ 2;
#X obj 366 372 -~ 1;
#X obj 732 185 select 0 1 2 3 4 5 6 7 8;
#X floatatom 772 442 5 0 0 0 - - - 0;
#X obj 772 596 *~;
#X obj 772 661 dac~;
#X obj 771 411 mtof;
#X obj 769 350 + 0;
#X obj 887 502 vline~;
#X floatatom 1044 285 5 0 0 0 - - - 0;
#X obj 1044 232 loadbang;
#X msg 727 256 0;
#X floatatom 732 121 5 0 0 0 - - - 0;
#X msg 1044 259 60;
#X obj 781 494 * 1.5;
#X obj 370 85 bng 19 250 50 0 empty empty empty 0 -10 0 12 #fcfcfc #000000 #000000;
#X msg 370 110 0;
#X obj 1168 189 select 0 1 2 3 4 5 6 7 8;
#X floatatom 1208 446 5 0 0 0 - - - 0;
#X obj 1208 600 *~;
#X obj 1203 666 dac~;
#X obj 1207 415 mtof;
#X obj 1205 354 + 0;
#X obj 1323 506 vline~;
#X floatatom 1344 421 5 0 0 0 - - - 0;
#X obj 1344 368 loadbang;
#X msg 1163 260 0;
#X floatatom 1168 125 5 0 0 0 - - - 0;
#X msg 1344 395 60;
#X obj 1217 498 * 1.5;
#X floatatom 887 732 5 0 0 0 - - - 0;
#X obj 890 543 vsl 19 162 0 1 0 0 empty empty empty 0 -9 0 12 #00ff04 #000000 #000000 0 1;
#X obj 775 623 *~;
#X floatatom 1304 740 5 0 0 0 - - - 0;
#X obj 1304 560 vsl 19 162 0 1 0 0 empty empty empty 0 -9 0 12 #00ff04 #000000 #000000 0 1;
#X obj 1208 628 *~;
#X obj 718 520 phasor~;
#X obj 779 521 phasor~;
#X msg 887 450 0.85 0 \, 0 200;
#X msg 766 256 2;
#X msg 807 256 3;
#X msg 849 256 5;
#X msg 886 257 7;
#X msg 927 257 8;
#X msg 969 257 10;
#X msg 1003 257 12;
#X obj 1151 525 phasor~;
#X obj 1215 525 phasor~;
#X obj 1127 565 expr~ $v1 > 0.5;
#X obj 1652 243 *~;
#X obj 1641 303 dac~;
#X obj 1716 211 vline~;
#X obj 1623 152 noise~;
#X obj 1715 119 bng 15 250 50 0 empty empty empty 17 7 0 10 #fcfcfc #000000 #000000;
#X msg 1716 159 1 0 \, 0 100 75;
#X floatatom 1736 433 5 0 0 0 - - - 0;
#X obj 1738 246 vsl 19 162 0 1 0 0 empty empty empty 0 -9 0 12 #00ff04 #000000 #000000 0 1;
#X obj 1650 272 *~;
#X text 408 83 The audio keeps playing after closing Unity. Click to turn off the channel., f 17;
#X text 56 390 FOR VOLUME CONTROL;
#X text 24 417 ALL GREEN SLIDERS ARE FOR VOLUME. 0.1 IS A GOOD LEVEL TO KEEP IT AT., f 41;
#X text 481 180 Both phasers combine to make a triangle wave. Check instructional document for credit., f 26;
#X text 205 87 Triangle Wave Channel;
#X text 517 380 VOLUME;
#X text 937 687 VOLUME;
#X text 1360 696 VOLUME;
#X text 1780 348 VOLUME;
#X text 793 83 Pulse Wave Channel 1;
#X text 1267 85 Pulse Wave Channel 2;
#X text 1740 77 Noise Generator Channel;
#X text 1078 615 Square wave. Credits in instructional document., f 16;
#X msg 1323 454 0.85 0 \, 0 200;
#X text 609 519 Sawtooth wave;
#X text 1022 327 Click on the numbers under the selectors to test the sound, f 21;
#X text 1754 104 Click the bang to test the noise, f 14;
#X text 61 475 How to use;
#X text 25 508 All channels update their values through Unity. No manual usage needed., f 39;
#X msg 1202 260 4;
#X msg 1243 260 2;
#X msg 1285 260 5;
#X msg 1322 261 4;
#X msg 1363 261 7;
#X msg 1405 261 5;
#X msg 1439 261 9;
#X text 83 8 Turn on DSP;
#X connect 0 0 1 0;
#X connect 4 0 5 0;
#X connect 5 0 7 0;
#X connect 6 0 5 0;
#X connect 8 0 9 0;
#X connect 8 0 9 1;
#X connect 10 0 18 0;
#X connect 10 0 19 0;
#X connect 11 0 8 1;
#X connect 12 0 10 0;
#X connect 13 0 39 0;
#X connect 14 0 54 0;
#X connect 15 0 80 0;
#X connect 16 0 11 0;
#X connect 17 0 23 0;
#X connect 18 0 20 0;
#X connect 19 0 17 0;
#X connect 20 0 21 0;
#X connect 21 0 22 0;
#X connect 22 0 26 0;
#X connect 23 0 24 0;
#X connect 24 0 25 0;
#X connect 25 0 26 0;
#X connect 26 0 27 0;
#X connect 27 0 28 0;
#X connect 28 0 8 0;
#X connect 29 0 38 0;
#X connect 29 1 66 0;
#X connect 29 2 67 0;
#X connect 29 3 68 0;
#X connect 29 4 69 0;
#X connect 29 5 70 0;
#X connect 29 6 71 0;
#X connect 29 7 72 0;
#X connect 29 8 38 0;
#X connect 30 0 41 0;
#X connect 30 0 63 0;
#X connect 31 0 59 0;
#X connect 33 0 30 0;
#X connect 34 0 33 0;
#X connect 34 0 65 0;
#X connect 35 0 31 1;
#X connect 36 0 34 1;
#X connect 37 0 40 0;
#X connect 38 0 34 0;
#X connect 39 0 29 0;
#X connect 40 0 36 0;
#X connect 41 0 64 0;
#X connect 42 0 43 0;
#X connect 43 0 10 0;
#X connect 44 0 53 0;
#X connect 44 1 104 0;
#X connect 44 2 105 0;
#X connect 44 3 106 0;
#X connect 44 4 107 0;
#X connect 44 5 108 0;
#X connect 44 6 109 0;
#X connect 44 7 110 0;
#X connect 44 8 53 0;
#X connect 45 0 56 0;
#X connect 45 0 73 0;
#X connect 46 0 62 0;
#X connect 48 0 45 0;
#X connect 49 0 48 0;
#X connect 49 0 98 0;
#X connect 50 0 46 1;
#X connect 51 0 49 1;
#X connect 52 0 55 0;
#X connect 53 0 49 0;
#X connect 54 0 44 0;
#X connect 55 0 51 0;
#X connect 56 0 74 0;
#X connect 57 0 59 1;
#X connect 58 0 57 0;
#X connect 59 0 32 0;
#X connect 59 0 32 1;
#X connect 60 0 62 1;
#X connect 61 0 60 0;
#X connect 62 0 47 0;
#X connect 62 0 47 1;
#X connect 63 0 31 0;
#X connect 64 0 31 0;
#X connect 65 0 35 0;
#X connect 66 0 34 0;
#X connect 67 0 34 0;
#X connect 68 0 34 0;
#X connect 69 0 34 0;
#X connect 70 0 34 0;
#X connect 71 0 34 0;
#X connect 72 0 34 0;
#X connect 73 0 75 0;
#X connect 74 0 75 0;
#X connect 75 0 46 0;
#X connect 76 0 84 0;
#X connect 78 0 76 1;
#X connect 79 0 76 0;
#X connect 80 0 81 0;
#X connect 81 0 78 0;
#X connect 82 0 84 1;
#X connect 83 0 82 0;
#X connect 84 0 77 0;
#X connect 84 0 77 1;
#X connect 98 0 50 0;
#X connect 104 0 49 0;
#X connect 105 0 49 0;
#X connect 106 0 49 0;
#X connect 107 0 49 0;
#X connect 108 0 49 0;
#X connect 109 0 49 0;
#X connect 110 0 49 0;
